<svg width="342" height="116" viewBox="0 0 342 116" fill="none" xmlns="http://www.w3.org/2000/svg">
<path d="M28.9075 13.328H0.4915V0.399994H72.2995V13.328H43.8835V90H28.9075V13.328ZM87.4635 91.024C80.9782 91.024 75.7302 89.4027 71.7195 86.16C67.7942 82.832 65.8315 78.4373 65.8315 72.976V68.368C65.8315 62.992 67.8795 58.6827 71.9755 55.44C76.1568 52.1973 81.6182 50.576 88.3595 50.576H96.2955C98.6848 50.576 101.245 50.9173 103.976 51.6C106.706 52.2827 109.138 53.1787 111.272 54.288V46.352C111.272 43.7067 110.418 41.5733 108.712 39.952C107.005 38.3307 104.786 37.52 102.056 37.52H91.3035C88.4875 37.52 86.2262 38.2027 84.5195 39.568C82.8128 40.848 81.9595 42.5547 81.9595 44.688H67.6235C67.6235 38.8 69.7995 34.064 74.1515 30.48C78.5035 26.896 84.2208 25.104 91.3035 25.104H102.056C109.224 25.104 114.984 27.0667 119.336 30.992C123.688 34.832 125.864 39.952 125.864 46.352V90H112.168V81.936C110.12 84.6667 107.56 86.8853 104.488 88.592C101.416 90.2133 98.3862 91.024 95.3995 91.024H87.4635ZM96.2955 79.504C99.7088 79.504 102.781 78.5653 105.512 76.688C108.242 74.7253 110.162 72.1653 111.272 69.008V65.936C109.821 64.7413 107.773 63.8027 105.128 63.12C102.482 62.352 99.7088 61.968 96.8075 61.968H88.7435C86.1835 61.968 84.0928 62.608 82.4715 63.888C80.9355 65.168 80.1675 66.832 80.1675 68.88V72.464C80.1675 74.5973 80.9782 76.304 82.5995 77.584C84.2208 78.864 86.3542 79.504 88.9995 79.504H96.2955ZM164.929 115.984C158.529 115.984 153.195 114.192 148.929 110.608C144.662 107.024 142.315 102.288 141.889 96.4H156.353C156.609 98.5333 157.505 100.24 159.041 101.52C160.662 102.8 162.625 103.44 164.929 103.44H176.193C179.435 103.44 181.995 102.203 183.873 99.728C185.835 97.3387 186.817 94.096 186.817 90V82.704C185.025 84.752 182.806 86.416 180.161 87.696C177.601 88.976 175.083 89.616 172.609 89.616H163.649C156.31 89.616 150.337 87.3547 145.729 82.832C141.206 78.224 138.945 72.208 138.945 64.784V51.088C138.945 45.968 140.011 41.4453 142.145 37.52C144.278 33.5947 147.265 30.5653 151.105 28.432C155.03 26.2133 159.51 25.104 164.545 25.104H172.481C175.382 25.104 178.241 25.8293 181.057 27.28C183.873 28.6453 186.091 30.48 187.713 32.784V26.128H201.537V90C201.537 97.936 199.233 104.251 194.625 108.944C190.102 113.637 183.958 115.984 176.193 115.984H164.929ZM173.377 77.072C177.046 77.072 180.118 75.6213 182.593 72.72C185.067 69.8187 186.475 66.064 186.817 61.456V50.32C186.475 46.6507 185.153 43.664 182.849 41.36C180.545 38.9707 177.771 37.776 174.529 37.776H165.697C162.113 37.776 159.211 39.0987 156.993 41.744C154.774 44.304 153.665 47.7173 153.665 51.984V63.888C153.665 67.8133 154.646 71.0133 156.609 73.488C158.657 75.8773 161.302 77.072 164.545 77.072H173.377ZM215.32 50.832H254.744V63.632H215.32V50.832Z" fill="#2270FF"/>
<path d="M270.422 0.399994H285.398V90H270.422V0.399994ZM330.638 90C323.384 90 318.094 88.3787 314.766 85.136C311.438 81.8933 309.774 76.7733 309.774 69.776V38.8H298.51V26.128H310.158V6.8H324.494V26.128H341.134V38.8H324.494V69.264C324.494 72.08 325.048 74.128 326.158 75.408C327.267 76.688 329.016 77.328 331.406 77.328H341.134V90H330.638Z" fill="#FF4640"/>
</svg>
